<svg id="Layer_1" data-name="Layer 1" xmlns="http://www.w3.org/2000/svg" xmlns:xlink="http://www.w3.org/1999/xlink" viewBox="0 0 222.49 207.14"><defs><style>.cls-1,.cls-7{fill:#fff;}.cls-2{fill:#ea8e10;}.cls-3{fill:#231f20;}.cls-4{fill:#f5a909;}.cls-5{fill:#12100b;}.cls-5,.cls-8{stroke:#4d4947;}.cls-33,.cls-5{stroke-width:6px;}.cls-6{fill:#d0d0d0;stroke-width:4px;}.cls-6,.cls-7{stroke:#231f20;}.cls-7{stroke-width:2px;}.cls-33,.cls-8{fill:none;}.cls-8{stroke-width:5px;}.cls-9{clip-path:url(#clip-path);}.cls-10{fill:#d2dfda;}.cls-11{fill:#191918;}.cls-12{fill:#181817;}.cls-13{fill:#161716;}.cls-14{fill:#1f1f1e;}.cls-15{fill:#1c1d1c;}.cls-16{fill:#151514;}.cls-17{fill:#161615;}.cls-18{fill:#131312;}.cls-19{fill:#1f201f;}.cls-20{fill:#222322;}.cls-21{fill:#282827;}.cls-22{fill:#070705;}.cls-23{fill:#090907;}.cls-24{fill:#f8f8f6;}.cls-25{fill:#d7ddda;}.cls-26{fill:#d2deda;}.cls-27{fill:#e9eae8;}.cls-28{fill:#2c2d2b;}.cls-29{fill:#333533;}.cls-30{fill:#0b0c0a;}.cls-31{fill:#9d656a;}.cls-32{fill:#e77d88;}.cls-33{stroke:#13110c;}.cls-34{fill:#e30613;stroke:#dd1215;stroke-width:0.23px;}</style><clipPath id="clip-path" transform="translate(-8.95 -4.87)"><path class="cls-1" d="M198.12,91.79A1.25,1.25,0,0,1,196.88,93h-70.7a1.26,1.26,0,0,1-1.26-1.25V57.37a1.26,1.26,0,0,1,1.26-1.25h70.7a1.25,1.25,0,0,1,1.24,1.25Z"/></clipPath></defs><title>bus</title><path class="cls-2" d="M168,16.67a344,344,0,0,0-49.38-3.21,355.33,355.33,0,0,0-46.23,2.76V40.46H36.65v93.13H203.79V40.91H168V16.67Z" transform="translate(-8.95 -4.87)"/><path class="cls-3" d="M168,47.87V16.77c18.29,3.17,30.14,8.17,30.14,13.81a5.72,5.72,0,0,1,5.63,5.8V47.87Z" transform="translate(-8.95 -4.87)"/><path class="cls-3" d="M72.41,47.37V16.27c-18.29,3.17-30.14,8.17-30.14,13.81a5.72,5.72,0,0,0-5.63,5.8V47.37Z" transform="translate(-8.95 -4.87)"/><path class="cls-4" d="M213.1,132.78c-4.23-4.22-12.78-4.51-19.15-8.11-25.55-14.45-43.26-19-73.16-19h-1.14c-29.9,0-47.61,4.58-73.16,19-6.37,3.6-14.92,3.89-19.15,8.11-12,12-4.39,38-4.39,38A1.24,1.24,0,0,0,24.19,172H216.25a1.24,1.24,0,0,0,1.24-1.25S225.14,144.82,213.1,132.78Z" transform="translate(-8.95 -4.87)"/><path class="cls-4" d="M143.33,14.19c0-2.86-9.3-9.33-23.24-9.33s-23,6.47-23,9.33" transform="translate(-8.95 -4.87)"/><path class="cls-3" d="M216,172H24.43c-.73,0-1.31.83-1.31,1.86l3.52,8.5c0,1.08.56,2,1.25,2h13.4v26.13A1.48,1.48,0,0,0,42.69,212H81.94a1.48,1.48,0,0,0,1.39-1.55V194.13h72.94v16.33a1.48,1.48,0,0,0,1.4,1.55h39.84a1.48,1.48,0,0,0,1.4-1.55V184.33h13.63c.7,0,1.27-.89,1.27-2l3.52-8.5C217.32,172.83,216.73,172,216,172Z" transform="translate(-8.95 -4.87)"/><path class="cls-5" d="M162.68,155.44a7.06,7.06,0,0,1-7.06,7.06H84.82a7.06,7.06,0,0,1-7.06-7.06V128.88a7.06,7.06,0,0,1,7.06-7.07h70.79a7.06,7.06,0,0,1,7.06,7.07v26.56Z" transform="translate(-8.95 -4.87)"/><path class="cls-6" d="M213.37,147.78a15.25,15.25,0,1,1-15.26-15.25A15.25,15.25,0,0,1,213.37,147.78Z" transform="translate(-8.95 -4.87)"/><path class="cls-7" d="M207.56,147.78a9.44,9.44,0,1,1-9.44-9.44A9.44,9.44,0,0,1,207.56,147.78Z" transform="translate(-8.95 -4.87)"/><path class="cls-6" d="M57.57,147.78a15.25,15.25,0,1,1-15.26-15.25A15.25,15.25,0,0,1,57.57,147.78Z" transform="translate(-8.95 -4.87)"/><path class="cls-7" d="M51.76,147.78a9.44,9.44,0,1,1-9.44-9.44A9.44,9.44,0,0,1,51.76,147.78Z" transform="translate(-8.95 -4.87)"/><line class="cls-8" x1="70.88" y1="133.63" x2="151.66" y2="133.63"/><line class="cls-8" x1="70.88" y1="125.25" x2="151.66" y2="125.25"/><line class="cls-8" x1="70.88" y1="142.01" x2="151.66" y2="142.01"/><line class="cls-8" x1="70.88" y1="150.39" x2="151.66" y2="150.39"/><path class="cls-1" d="M115.52,91.79A1.25,1.25,0,0,1,114.27,93H43.56a1.25,1.25,0,0,1-1.25-1.25V57.37a1.25,1.25,0,0,1,1.25-1.25h70.71a1.25,1.25,0,0,1,1.24,1.25Z" transform="translate(-8.95 -4.87)"/><path class="cls-1" d="M198.12,91.79A1.25,1.25,0,0,1,196.88,93h-70.7a1.26,1.26,0,0,1-1.26-1.25V57.37a1.26,1.26,0,0,1,1.26-1.25h70.7a1.25,1.25,0,0,1,1.24,1.25Z" transform="translate(-8.95 -4.87)"/><g class="cls-9"><path class="cls-10" d="M171,96.65l-.42-.11a1.17,1.17,0,0,0-.21-.15l-2.51-1.08-.29-.2-.1-.08-.51-.6c.07,0,.16-.12.21-.1a14,14,0,0,0,3.52.92,19.34,19.34,0,0,0,5.92,0,16,16,0,0,0,5-1.59,3.94,3.94,0,0,0,2.18-2.87,10.09,10.09,0,0,0-.12-3.5c-.35-2.2-.84-4.39-1.13-6.59a28.46,28.46,0,0,1-.06-3.79c0-1.26.14-2.52,0-3.77-.14-1.54-.47-3.06-.71-4.59a1,1,0,0,1,.34-1c.31-.23.58-.49.88-.73a1.86,1.86,0,0,0,.55-2,2,2,0,0,1,0-.64,2.08,2.08,0,0,1-.18,3.28l-.59.32.47,1.11.07.27v.09l.09.29a5.54,5.54,0,0,1,.08.56c.07,1.31.13,2.62.2,3.94v.29a.09.09,0,0,0,0,.09v3.16c.09,1.18.18,2.36.28,3.54,0,.07.12.13.18.2l.1.48v.37l0,.79c0,.15.05.31.08.46l.67,3.43.06.49,0,.37v2.11l-.08.68,0,.27a.43.43,0,0,0-.08.12A6.59,6.59,0,0,1,182,95a13.21,13.21,0,0,1-3.62,1.41l-.45.08h-.19a4.44,4.44,0,0,0-.8,0c-.38.06-.74.18-1.12.27h-.19c-.28-.28-.5-.27-.67.11-.37,0-.74,0-1.11,0Z" transform="translate(-8.95 -4.87)"/><path class="cls-11" d="M152.07,81.15c.43-1.38.87-2.75,1.28-4.14a1.16,1.16,0,0,0-.07-.78,13.61,13.61,0,0,1-1.5-5.18,16.25,16.25,0,0,1,0-2.83,7.77,7.77,0,0,1,2.1-4.59l.3.13c-.22.29-.46.56-.67.86A9.21,9.21,0,0,0,152,70.83a14.82,14.82,0,0,0,1.91,6,1.93,1.93,0,0,1,.11.31l-.06,0-.25-.29-1.51,4.67Z" transform="translate(-8.95 -4.87)"/><path class="cls-12" d="M158.46,96.35a12,12,0,0,1-4-1.32,6.55,6.55,0,0,1-2.84-2.74,6.8,6.8,0,0,1-1-3.37c0-1,.06-1.93.1-2.89,0,0,0-.07.08-.1L151,86l0,.28-.09.21a5.16,5.16,0,0,0-.1.82,8.07,8.07,0,0,0,.29,3l.82,1.94c.08.14.14.28.23.41a7.24,7.24,0,0,0,3.79,2.72c.91.31,1.86.47,2.8.7Z" transform="translate(-8.95 -4.87)"/><path class="cls-13" d="M156.06,62.19a8.39,8.39,0,0,1,1.43-.45,7,7,0,0,1,2.88.2.55.55,0,0,0,.42-.13,15,15,0,0,1,4.84-2.87l.19.28a17.24,17.24,0,0,0-4.89,2.88.69.69,0,0,1-.49.18,6.92,6.92,0,0,0-4.37.2Z" transform="translate(-8.95 -4.87)"/><path class="cls-14" d="M175.7,58.37c.22.2.55.36.63.6a3.25,3.25,0,0,0,1.5,1.59,13.22,13.22,0,0,1,3,2.74c.08.11.36.06.55.1a1.76,1.76,0,0,1,.29.12v.14l-1.13.27c.3-.23.13-.39,0-.56-.3-.32-.59-.67-.91-1a13.27,13.27,0,0,0-5-3.18l.85.09,1,.47a2.17,2.17,0,0,0-1.16-1.25l-.26-.16.52-.11.08,0Z" transform="translate(-8.95 -4.87)"/><path class="cls-15" d="M178.34,96.39A13.21,13.21,0,0,0,182,95a6.59,6.59,0,0,0,3-4.05.43.43,0,0,1,.08-.12l.21.3a6.47,6.47,0,0,1-3.64,4.39c-.72.34-1.47.63-2.21.94h-.09l-.56.11-.11.08-.29.08Z" transform="translate(-8.95 -4.87)"/><path class="cls-16" d="M175.51,58.27l-.52.11-2,.09.51.47-3.25-.47-.2,0-.47,0-.2-.27a1.77,1.77,0,0,1,.45-.09c.72.05,1.44.08,2.15.2s1.21-.29,1.82-.36A2.39,2.39,0,0,1,175.51,58.27Z" transform="translate(-8.95 -4.87)"/><path class="cls-17" d="M183.41,67.49a2.08,2.08,0,0,0,.18-3.28l-1.11-.55-.2-.11a1.9,1.9,0,0,1,1.78.58c.74,1,.68,3.06-.67,3.72Z" transform="translate(-8.95 -4.87)"/><path class="cls-12" d="M175.59,96.72h.47l.49.13v.11s-.07.07-.11.07c-1.23,0-2.47.1-3.7.11a6.72,6.72,0,0,1-1.39-.22c-.13,0-.24-.17-.36-.26l2.83.18c.37,0,.74,0,1.11,0Z" transform="translate(-8.95 -4.87)"/><path class="cls-18" d="M183.74,74.07c-.06-1.31-.13-2.62-.2-3.94a5.54,5.54,0,0,0-.08-.56h.28c.09.61.22,1.22.25,1.83,0,1,0,2,0,3Z" transform="translate(-8.95 -4.87)"/><path class="cls-15" d="M151,86l-.25-.12c.27-1.08.54-2.16.82-3.24.11-.42.24-.83.35-1.25l.08-.11,0-.17.17.36Z" transform="translate(-8.95 -4.87)"/><path class="cls-18" d="M184.21,81.36c-.06-.07-.18-.13-.18-.2-.1-1.18-.19-2.36-.28-3.54a3,3,0,0,0,.16-.43c.05-.24.07-.48.11-.72,0,.4.07.8.09,1.2.06,1,.13,2,.18,2.93A5,5,0,0,1,184.21,81.36Z" transform="translate(-8.95 -4.87)"/><path class="cls-11" d="M185.07,86.89l-.67-3.43c0-.15-.06-.31-.08-.46l.08,0h.25l.69,3.92Z" transform="translate(-8.95 -4.87)"/><path class="cls-19" d="M167.85,95.31l2.51,1.08a1.17,1.17,0,0,1,.21.15,2,2,0,0,1-.75,0c-.65-.25-1.27-.55-1.89-.86-.15-.07-.25-.24-.38-.37Z" transform="translate(-8.95 -4.87)"/><path class="cls-20" d="M156.06,62.19v.3l-1.9,1.28-.3-.13A4.57,4.57,0,0,1,156.06,62.19Z" transform="translate(-8.95 -4.87)"/><path class="cls-21" d="M162.2,96.54l-1.24,0h-.87l-.09-.08.29-.2h.1l.11.15.08-.14,2.68-.13v.22l-1,.09Z" transform="translate(-8.95 -4.87)"/><path class="cls-21" d="M184,76.46c0,.24-.06.48-.11.72a3,3,0,0,1-.16.43V74.45l0,0,0-.07v-.29l.28.29v2.1Z" transform="translate(-8.95 -4.87)"/><path class="cls-11" d="M185.18,89.76V87.95l.2.15.07,2Z" transform="translate(-8.95 -4.87)"/><path class="cls-19" d="M163.25,96.37v-.22l1.82-.48v.23c-.37.12-.73.26-1.1.36A6.13,6.13,0,0,1,163.25,96.37Z" transform="translate(-8.95 -4.87)"/><path class="cls-18" d="M183.41,67.49l0,.35a1.62,1.62,0,0,0,0,.39c.06.25.15.49.23.73l-.33,0-.47-1.11Z" transform="translate(-8.95 -4.87)"/><path class="cls-13" d="M167.3,58.5l.63-.13v.11l.28.17L166.4,59l0-.34.92-.21.11.14.05-.06Z" transform="translate(-8.95 -4.87)"/><path class="cls-20" d="M167,94.43l.51.6-.2.2c-.28-.34-.51,0-.75.06a1.16,1.16,0,0,1-.19,0l-.1-.13.68-.46-.21-.35.1-.11Z" transform="translate(-8.95 -4.87)"/><path class="cls-12" d="M160.28,96.27l-.29.2s0,.05,0,.08l-.48-.11.1-.15-.11.15-.87,0,.3-.27Z" transform="translate(-8.95 -4.87)"/><path class="cls-21" d="M168.22,58.65l-.28-.17.48-.18,1,0,.2.27Z" transform="translate(-8.95 -4.87)"/><path class="cls-21" d="M166.37,58.7l0,.34-.58.19-.19-.28.48-.18h.09Z" transform="translate(-8.95 -4.87)"/><path class="cls-11" d="M184.32,83l0-.79.18-.3.1.76-.18.29Z" transform="translate(-8.95 -4.87)"/><path class="cls-15" d="M177.7,96.46h.19l.27.27H178l-.34.1-.28,0-.31-.27Z" transform="translate(-8.95 -4.87)"/><path class="cls-14" d="M185.07,86.89h.26l0,.48h-.24Z" transform="translate(-8.95 -4.87)"/><path class="cls-15" d="M176.55,96.94v-.11l-.09-.17.47,0,.1.29Z" transform="translate(-8.95 -4.87)"/><path class="cls-14" d="M185.26,91.11l-.21-.3,0-.27.32-.28Z" transform="translate(-8.95 -4.87)"/><path class="cls-20" d="M166.11,95.42l-.17.08-.21.1h0l-.09,0-.14.08-.11-.13.75-.31Z" transform="translate(-8.95 -4.87)"/><path class="cls-20" d="M165.07,95.9v-.23l.33-.15.11.13Z" transform="translate(-8.95 -4.87)"/><path class="cls-11" d="M185.13,87.38h.24q0,.36,0,.72l0-.46-.16.12Z" transform="translate(-8.95 -4.87)"/><path class="cls-12" d="M177,96.93l-.1-.29.17-.05.31.27Z" transform="translate(-8.95 -4.87)"/><path class="cls-16" d="M168.41,58.29l-.48.18v-.11Z" transform="translate(-8.95 -4.87)"/><path class="cls-12" d="M178.16,96.74l-.27-.27.45-.08,0,.33Z" transform="translate(-8.95 -4.87)"/><path class="cls-22" d="M182.28,63.54l.2.11-.85,0v-.14Z" transform="translate(-8.95 -4.87)"/><path class="cls-21" d="M158.94,96.11l-.3.27-.18,0,.29-.26Z" transform="translate(-8.95 -4.87)"/><path class="cls-15" d="M184.47,81.92l-.18.3v-.37Z" transform="translate(-8.95 -4.87)"/><path class="cls-19" d="M167.26,95.23l.2-.2.1.08v.23Z" transform="translate(-8.95 -4.87)"/><path class="cls-14" d="M185.18,89.76l.26.29,0,.21-.24-.39Z" transform="translate(-8.95 -4.87)"/><path class="cls-11" d="M185.17,89.86l.24.39h0l-.32.28Z" transform="translate(-8.95 -4.87)"/><path class="cls-17" d="M183.74,69.57h-.28l-.09-.29.15,0h.19v.23Z" transform="translate(-8.95 -4.87)"/><path class="cls-15" d="M184.4,83l.18-.29.07.29Z" transform="translate(-8.95 -4.87)"/><path class="cls-14" d="M185.17,87.75l.16-.12,0,.46h0l-.2-.15Z" transform="translate(-8.95 -4.87)"/><path class="cls-17" d="M183.29,68.92l.33,0-.11.27-.16,0Z" transform="translate(-8.95 -4.87)"/><path class="cls-12" d="M177.7,96.83l.34-.1Z" transform="translate(-8.95 -4.87)"/><path class="cls-20" d="M167.55,95.33V95.1l.29.2-.3,0Z" transform="translate(-8.95 -4.87)"/><path class="cls-23" d="M160.76,96.56h0Z" transform="translate(-8.95 -4.87)"/><path class="cls-19" d="M166.11,95.42l0-.2s.06,0,.07,0l.1.13-.07.18Z" transform="translate(-8.95 -4.87)"/><path class="cls-18" d="M184,75.41v0Z" transform="translate(-8.95 -4.87)"/><path class="cls-19" d="M165.73,95.61l.21-.1-.08.19Z" transform="translate(-8.95 -4.87)"/><path class="cls-21" d="M167.3,58.5l.16.08-.05.06-.11-.14Z" transform="translate(-8.95 -4.87)"/><path class="cls-18" d="M183.71,69.47v0Z" transform="translate(-8.95 -4.87)"/><path class="cls-18" d="M183.35,69.19l.16,0v0l-.15,0Z" transform="translate(-8.95 -4.87)"/><path class="cls-11" d="M152,81.32l-.08.11Z" transform="translate(-8.95 -4.87)"/><path class="cls-13" d="M166.21,58.77h-.09A.11.11,0,0,1,166.21,58.77Z" transform="translate(-8.95 -4.87)"/><path class="cls-16" d="M175.7,58.37l-.11-.08Z" transform="translate(-8.95 -4.87)"/><path class="cls-19" d="M165.64,95.58l.09,0Z" transform="translate(-8.95 -4.87)"/><path class="cls-21" d="M159.51,96.42l.11-.15-.1.15Z" transform="translate(-8.95 -4.87)"/><path class="cls-12" d="M179.32,96.45h0Z" transform="translate(-8.95 -4.87)"/><path class="cls-23" d="M160,96.54s0-.05,0-.08l.09.08H160Z" transform="translate(-8.95 -4.87)"/><path class="cls-23" d="M162.2,96.54l.1-.08Z" transform="translate(-8.95 -4.87)"/><path class="cls-12" d="M178.65,96.64l.11-.08Z" transform="translate(-8.95 -4.87)"/><path class="cls-24" d="M181.63,63.67l.85,0,1.11.55a2,2,0,0,0,0,.64,1.86,1.86,0,0,1-.55,2c-.3.24-.57.51-.88.73a1,1,0,0,0-.34,1c.24,1.53.58,3.05.71,4.59.11,1.24,0,2.51,0,3.77a28.46,28.46,0,0,0,.06,3.79c.29,2.21.78,4.39,1.13,6.59a10.09,10.09,0,0,1,.12,3.5,3.94,3.94,0,0,1-2.18,2.87,16,16,0,0,1-5,1.59,19.34,19.34,0,0,1-5.92,0,14,14,0,0,1-3.52-.92s-.14.06-.21.1l-.17-.17-.22-.2,0,.2,0-.14s.07-.08.06-.1a5.24,5.24,0,0,1-.69-2.61,6.79,6.79,0,0,1,.49-2.23,7.15,7.15,0,0,1,1-1.43c2.92-2.44,6.26-2.5,9.77-1.77a.57.57,0,0,0-.24-.17,11.5,11.5,0,0,0-6.71.12,5.92,5.92,0,0,0-2.83,1.66c-.22.17-.52.3-.66.53a6.25,6.25,0,0,0-1,3.12,6.77,6.77,0,0,0,.62,2.71,2.61,2.61,0,0,1-.39.25,10.36,10.36,0,0,1-3.85.71,27.35,27.35,0,0,1-2.8-.17,16.3,16.3,0,0,1-6.51-2.07c-.27-.15-.56-.27-.85-.4l-.82-1.94a8.07,8.07,0,0,1-.29-3,5.16,5.16,0,0,1,.1-.82l.09-.21,0-.28,1.21-4.53,1.51-4.67.25.29.06,0a1.93,1.93,0,0,0-.11-.31,14.82,14.82,0,0,1-1.91-6,9.21,9.21,0,0,1,1.46-6.21c.2-.3.44-.58.67-.86l1.9-1.28a6.92,6.92,0,0,1,4.37-.2.69.69,0,0,0,.49-.18,17.24,17.24,0,0,1,4.89-2.88l.58-.19,1.82-.39,1.34-.11.47,0,.2,0,3.25.47,1.06.29a13.27,13.27,0,0,1,5,3.18c.32.3.6.65.91,1,.16.17.34.34,0,.56Zm-18,9.14a1,1,0,0,0-1.1-.23,3.06,3.06,0,0,0-1.61,1.18,1.21,1.21,0,0,1-.28,0,8,8,0,0,0-3.22-.09,1.48,1.48,0,0,0-.31.13,8.88,8.88,0,0,1,6.61,1.53l-.2-.3A1.52,1.52,0,0,0,163.64,72.81ZM162,85.37a9.21,9.21,0,0,0-3.87-.14l3.87.29,1.3.35,0-.15ZM162.89,67c.87,0,1.19-.48.8-1a6,6,0,0,0-3.76-2.45.91.91,0,0,0-1,.38.85.85,0,0,0,.2,1,7,7,0,0,0,1.22,1A5.66,5.66,0,0,0,162.89,67Zm7.85-.08a.72.72,0,0,0-.68-.77,1,1,0,0,0-.81,1,.73.73,0,0,0,.75.7A.82.82,0,0,0,170.73,66.92Zm-8.84-4.06a.66.66,0,0,0,.66.7.87.87,0,0,0,.8-.85.62.62,0,0,0-.64-.71A.8.8,0,0,0,161.9,62.86Zm2,23.19,2,1.16A3.45,3.45,0,0,0,163.87,86.05Z" transform="translate(-8.95 -4.87)"/><path class="cls-25" d="M177.1,96.59l-.17.05-.47,0-.4,0h-.28c.37-.09.74-.21,1.12-.27a4.44,4.44,0,0,1,.8,0Z" transform="translate(-8.95 -4.87)"/><path class="cls-25" d="M175.59,96.72l-.67.11C175.09,96.44,175.32,96.44,175.59,96.72Z" transform="translate(-8.95 -4.87)"/><path class="cls-18" d="M183.74,74.36l0,.07,0,0A.09.09,0,0,1,183.74,74.36Z" transform="translate(-8.95 -4.87)"/><path class="cls-26" d="M151.93,92.26c.28.13.57.25.85.4a16.3,16.3,0,0,0,6.51,2.07,27.35,27.35,0,0,0,2.8.17,10.36,10.36,0,0,0,3.85-.71,2.61,2.61,0,0,0,.39-.25l.18.17,0,.14.14.12.21.35-.68.46s0,0-.07,0l-.75.31-.33.15-1.82.48-2.68.13h-.29l-1.34-.15h-.2c-.93-.23-1.89-.39-2.8-.7a7.24,7.24,0,0,1-3.79-2.72C152.07,92.54,152,92.4,151.93,92.26Z" transform="translate(-8.95 -4.87)"/><path class="cls-15" d="M151,86.32l-.09.21Z" transform="translate(-8.95 -4.87)"/><path class="cls-27" d="M174.55,59.23l-1.06-.29-.51-.47,2-.09.26.16c0,.06-.12.14-.11.19.07.2.16.39.25.59Z" transform="translate(-8.95 -4.87)"/><path class="cls-25" d="M175.4,59.33c-.08-.2-.18-.39-.25-.59,0,0,.07-.12.11-.19a2.17,2.17,0,0,1,1.16,1.25Z" transform="translate(-8.95 -4.87)"/><path class="cls-21" d="M170.24,58.48l-.2,0Z" transform="translate(-8.95 -4.87)"/><path class="cls-28" d="M176.06,96.7l.4,0,.09.17Z" transform="translate(-8.95 -4.87)"/><path class="cls-12" d="M160.38,96.27h.19l-.08.14Z" transform="translate(-8.95 -4.87)"/><path class="cls-19" d="M166.68,94.37l-.14-.12,0-.2.22.2Z" transform="translate(-8.95 -4.87)"/><path class="cls-22" d="M162.89,67a5.66,5.66,0,0,1-2.6-1,7,7,0,0,1-1.22-1,.85.85,0,0,1-.2-1,.91.91,0,0,1,1-.38A6,6,0,0,1,163.69,66C164.08,66.53,163.75,67,162.89,67Z" transform="translate(-8.95 -4.87)"/><path class="cls-29" d="M167.35,87.59a5.92,5.92,0,0,1,2.83-1.66,11.5,11.5,0,0,1,6.71-.12.57.57,0,0,1,.24.17c-3.5-.73-6.85-.67-9.77,1.77Z" transform="translate(-8.95 -4.87)"/><path class="cls-23" d="M170.73,66.92a.82.82,0,0,1-.74.88.73.73,0,0,1-.75-.7,1,1,0,0,1,.81-1A.72.72,0,0,1,170.73,66.92Z" transform="translate(-8.95 -4.87)"/><path class="cls-30" d="M161.9,62.86a.8.8,0,0,1,.82-.85.62.62,0,0,1,.64.71.87.87,0,0,1-.8.85A.66.66,0,0,1,161.9,62.86Z" transform="translate(-8.95 -4.87)"/><path class="cls-20" d="M167.35,87.59l0,.16a7.15,7.15,0,0,0-1,1.43,6.79,6.79,0,0,0-.49,2.23,5.24,5.24,0,0,0,.69,2.61s0,.07-.06.1l-.18-.17a6.77,6.77,0,0,1-.62-2.71,6.25,6.25,0,0,1,1-3.12C166.83,87.89,167.12,87.76,167.35,87.59Z" transform="translate(-8.95 -4.87)"/><path class="cls-28" d="M163.54,75l.2.3a8.88,8.88,0,0,0-6.61-1.53,1.48,1.48,0,0,1,.31-.13,8,8,0,0,1,3.22.09,1.21,1.21,0,0,0,.28,0l.35.15,0,0,.25.08,0,0,.19.06,1.43.76Z" transform="translate(-8.95 -4.87)"/><path class="cls-21" d="M162,85.52l-3.87-.29a9.21,9.21,0,0,1,3.87.14Z" transform="translate(-8.95 -4.87)"/><path class="cls-31" d="M161.29,73.91l-.35-.15a3.06,3.06,0,0,1,1.61-1.18,1,1,0,0,1,1.1.23l0,0a.64.64,0,0,1-.14,0c-.91-.3-1.53.2-2.11.78C161.3,73.67,161.31,73.81,161.29,73.91Z" transform="translate(-8.95 -4.87)"/><path class="cls-29" d="M163.87,86.05a3.45,3.45,0,0,1,2,1.16Z" transform="translate(-8.95 -4.87)"/><path class="cls-31" d="M163.54,75l-.3-.18a2.55,2.55,0,0,0,.51-.46c.34-.54.1-1-.14-1.54l0,0A1.52,1.52,0,0,1,163.54,75Z" transform="translate(-8.95 -4.87)"/><path class="cls-29" d="M162,85.52v-.16l1.33.35,0,.15Z" transform="translate(-8.95 -4.87)"/><path class="cls-32" d="M163.61,72.84c.24.5.48,1,.14,1.54a2.55,2.55,0,0,1-.51.46l-1.43-.76-.19-.06,0,0-.25-.08,0,0c0-.1,0-.24.07-.3.58-.58,1.2-1.09,2.11-.78A.64.64,0,0,0,163.61,72.84Z" transform="translate(-8.95 -4.87)"/><path class="cls-31" d="M161.32,73.93l.25.08Z" transform="translate(-8.95 -4.87)"/><path class="cls-31" d="M161.61,74l.19.06Z" transform="translate(-8.95 -4.87)"/></g><path class="cls-33" d="M185.61,93.13c0-9-9.75-15.58-18.49-15.58s-18.48,6.67-18.48,15.58" transform="translate(-8.95 -4.87)"/><path class="cls-3" d="M28.25,86.56A1.24,1.24,0,0,1,27,87.8H10.2A1.25,1.25,0,0,1,9,86.56v-24a1.25,1.25,0,0,1,1.25-1.24H27a1.23,1.23,0,0,1,1.24,1.24Z" transform="translate(-8.95 -4.87)"/><path class="cls-33" d="M18.6,87.8c0,5.76,8,10.42,17.89,10.42" transform="translate(-8.95 -4.87)"/><path class="cls-3" d="M212.14,86.56a1.25,1.25,0,0,0,1.24,1.24H230.2a1.25,1.25,0,0,0,1.24-1.24v-24a1.25,1.25,0,0,0-1.24-1.24H213.38a1.25,1.25,0,0,0-1.24,1.24Z" transform="translate(-8.95 -4.87)"/><path class="cls-33" d="M221.79,87.8c0,5.76-8,10.42-17.88,10.42" transform="translate(-8.95 -4.87)"/><path class="cls-34" d="M173.45,34.68A10.6,10.6,0,1,0,184,24.09,10.59,10.59,0,0,0,173.45,34.68Z" transform="translate(-8.95 -4.87)"/><path class="cls-34" d="M44.56,34.68a10.6,10.6,0,1,0,10.58-10.6A10.59,10.59,0,0,0,44.56,34.68Z" transform="translate(-8.95 -4.87)"/><path d="M74.52,24.13a24.48,24.48,0,0,1,4-.3,7.82,7.82,0,0,1,4.64,1.06,2.92,2.92,0,0,1,1.4,2.57c0,1.41-1.08,2.64-2.86,3.2v0c1.6.35,3.48,1.49,3.48,3.65a3.69,3.69,0,0,1-1.43,2.92c-1.18.93-3.08,1.36-5.84,1.36a29.39,29.39,0,0,1-3.39-.17V24.13Zm2.18,6h2c2.31,0,3.66-1,3.66-2.44,0-1.71-1.5-2.38-3.71-2.38a10.76,10.76,0,0,0-1.93.13V30.1Zm0,7a13.49,13.49,0,0,0,1.83.09c2.26,0,4.34-.71,4.34-2.83s-2-2.81-4.36-2.81H76.71v5.56Z" transform="translate(-8.95 -4.87)"/><path d="M90.3,23.94v8.63c0,3.27,1.68,4.65,3.94,4.65,2.51,0,4.11-1.43,4.11-4.65V23.94h2.21v8.5c0,4.48-2.73,6.31-6.4,6.31-3.46,0-6.07-1.71-6.07-6.23V23.94Z" transform="translate(-8.95 -4.87)"/><path d="M104.05,36.22a8.68,8.68,0,0,0,3.91,1c2.23,0,3.54-1,3.54-2.49s-.9-2.14-3.19-2.9c-2.76-.84-4.46-2.08-4.46-4.13,0-2.27,2.18-4,5.47-4a8.69,8.69,0,0,1,3.74.71l-.6,1.54a7.58,7.58,0,0,0-3.21-.69c-2.31,0-3.19,1.19-3.19,2.18,0,1.36,1,2,3.36,2.81,2.86,1,4.31,2.14,4.31,4.28s-1.93,4.19-5.92,4.19a9.84,9.84,0,0,1-4.31-.93Z" transform="translate(-8.95 -4.87)"/><path d="M121.89,32v1.41h-6.19V32Z" transform="translate(-8.95 -4.87)"/><path d="M124.55,24.13a24.47,24.47,0,0,1,4-.3,7.81,7.81,0,0,1,4.64,1.06,2.92,2.92,0,0,1,1.4,2.57c0,1.41-1.08,2.64-2.86,3.2v0c1.6.35,3.49,1.49,3.49,3.65a3.69,3.69,0,0,1-1.43,2.92c-1.18.93-3.09,1.36-5.85,1.36a29.35,29.35,0,0,1-3.39-.17V24.13Zm2.18,6h2c2.31,0,3.66-1,3.66-2.44,0-1.71-1.51-2.38-3.71-2.38a10.77,10.77,0,0,0-1.93.13V30.1Zm0,7a13.51,13.51,0,0,0,1.83.09c2.26,0,4.34-.71,4.34-2.83s-2-2.81-4.36-2.81h-1.81v5.56Z" transform="translate(-8.95 -4.87)"/><path d="M150,38a12.36,12.36,0,0,1-4.46.69c-4.77,0-8.35-2.6-8.35-7.37,0-4.56,3.59-7.65,8.83-7.65a10.3,10.3,0,0,1,4,.65l-.53,1.53a9,9,0,0,0-3.41-.6c-4,0-6.6,2.18-6.6,6,0,3.57,2.38,5.86,6.5,5.86a10,10,0,0,0,3.56-.6Z" transform="translate(-8.95 -4.87)"/><path d="M152.7,38.51V23.94h2.38l5.42,7.37a40.2,40.2,0,0,1,3,4.73l.05,0a55.79,55.79,0,0,1-.25-6v-6.1h2.06V38.51h-2.21l-5.37-7.39a44.38,44.38,0,0,1-3.16-4.87l-.08,0c.13,1.84.18,3.59.18,6v6.23Z" transform="translate(-8.95 -4.87)"/></svg>